{
  "accessors": [
    {
      "bufferView": 2,
      "componentType": 5126,
      "count": 83,
      "max": [
        3.7029778957366943,
        8.837821960449219,
        10.205175399780273
      ],
      "min": [
        -3.7029778957366943,
        3.887953996658325,
        -9.975815773010254
      ],
      "type": "VEC3"
    },
    {
      "bufferView": 2,
      "byteOffset": 996,
      "componentType": 5126,
      "count": 83,
      "max": [
        1.0,
        1.0,
        1.0
      ],
      "min": [
        -1.0,
        -1.0,
        -1.0
      ],
      "type": "VEC3"
    },
    {
      "bufferView": 3,
      "componentType": 5126,
      "count": 83,
      "max": [
        1.0,
        1.0,
        1.0,
        1.0
      ],
      "min": [
        -3.604847006499767e-05,
        -1.0,
        -1.0,
        1.0
      ],
      "type": "VEC4"
    },
    {
      "bufferView": 1,
      "componentType": 5126,
      "count": 83,
      "max": [
        0.564195990562439,
        0.9900529980659485
      ],
      "min": [
        0.0019920000340789557,
        0.001436999998986721
      ],
      "type": "VEC2"
    },
    {
      "bufferView": 0,
      "componentType": 5125,
      "count": 168,
      "type": "SCALAR"
    },
    {
      "bufferView": 2,
      "byteOffset": 1992,
      "componentType": 5126,
      "count": 20,
      "max": [
        3.154668092727661,
        3.887953996658325,
        9.427504539489746
      ],
      "min": [
        -3.154668092727661,
        -8.837821960449219,
        -9.427504539489746
      ],
      "type": "VEC3"
    },
    {
      "bufferView": 2,
      "byteOffset": 2232,
      "componentType": 5126,
      "count": 20,
      "max": [
        0.9940733313560486,
        0.0,
        1.0
      ],
      "min": [
        -0.9940733313560486,
        -1.0,
        -1.0
      ],
      "type": "VEC3"
    },
    {
      "bufferView": 3,
      "byteOffset": 1328,
      "componentType": 5126,
      "count": 20,
      "max": [
        1.0,
        0.9940714240074158,
        0.0019559653010219336,
        1.0
      ],
      "min": [
        -0.00021141429897397757,
        0.0,
        -0.9999982118606567,
        1.0
      ],
      "type": "VEC4"
    },
    {
      "bufferView": 1,
      "byteOffset": 664,
      "componentType": 5126,
      "count": 20,
      "max": [
        0.9939200282096863,
        0.9744579792022705
      ],
      "min": [
        0.04873200133442879,
        0.0019759999122470617
      ],
      "type": "VEC2"
    },
    {
      "bufferView": 0,
      "byteOffset": 672,
      "componentType": 5125,
      "count": 30,
      "type": "SCALAR"
    }
  ],
  "asset": {
    "extras": {
      "author": "Shuckwaffles (https://sketchfab.com/shuckwaffles14)",
      "license": "CC-BY-4.0 (http://creativecommons.org/licenses/by/4.0/)",
      "source": "https://sketchfab.com/3d-models/low-poly-exit-light-ceiling-sign-light-ca3070fa6fa240e6838638cb5c002c51",
      "title": "Low-Poly Exit light ceiling sign light"
    },
    "generator": "Sketchfab-13.82.0",
    "version": "2.0"
  },
  "bufferViews": [
    {
      "buffer": 0,
      "byteLength": 792,
      "name": "floatBufferViews",
      "target": 34963
    },
    {
      "buffer": 0,
      "byteLength": 824,
      "byteOffset": 792,
      "byteStride": 8,
      "name": "floatBufferViews",
      "target": 34962
    },
    {
      "buffer": 0,
      "byteLength": 2472,
      "byteOffset": 1616,
      "byteStride": 12,
      "name": "floatBufferViews",
      "target": 34962
    },
    {
      "buffer": 0,
      "byteLength": 1648,
      "byteOffset": 4088,
      "byteStride": 16,
      "name": "floatBufferViews",
      "target": 34962
    }
  ],
  "buffers": [
    {
      "byteLength": 5736,
      "uri": "scene.bin"
    }
  ],
  "images": [
    {
      "uri": "textures/ExitLightWhite_baseColor.jpeg"
    },
    {
      "uri": "textures/ExitLightWhite_metallicRoughness.png"
    },
    {
      "uri": "textures/ExitLightWhite_normal.png"
    },
    {
      "uri": "textures/ExitLightPanel_baseColor.png"
    },
    {
      "uri": "textures/ExitLightPanel_metallicRoughness.png"
    },
    {
      "uri": "textures/ExitLightPanel_normal.png"
    }
  ],
  "materials": [
    {
      "doubleSided": true,
      "name": "ExitLightWhite",
      "normalTexture": {
        "index": 2
      },
      "occlusionTexture": {
        "index": 1
      },
      "pbrMetallicRoughness": {
        "baseColorTexture": {
          "index": 0
        },
        "metallicRoughnessTexture": {
          "index": 1
        }
      }
    },
    {
      "alphaMode": "BLEND",
      "doubleSided": true,
      "name": "ExitLightPanel",
      "normalTexture": {
        "index": 5
      },
      "occlusionTexture": {
        "index": 4
      },
      "pbrMetallicRoughness": {
        "baseColorTexture": {
          "index": 3
        },
        "metallicRoughnessTexture": {
          "index": 4
        }
      }
    }
  ],
  "meshes": [
    {
      "name": "defaultMaterial",
      "primitives": [
        {
          "attributes": {
            "NORMAL": 1,
            "POSITION": 0,
            "TANGENT": 2,
            "TEXCOORD_0": 3
          },
          "indices": 4,
          "material": 0,
          "mode": 4
        }
      ]
    },
    {
      "name": "defaultMaterial",
      "primitives": [
        {
          "attributes": {
            "NORMAL": 6,
            "POSITION": 5,
            "TANGENT": 7,
            "TEXCOORD_0": 8
          },
          "indices": 9,
          "material": 1,
          "mode": 4
        }
      ]
    }
  ],
  "nodes": [
    {
      "children": [
        1
      ],
      "matrix": [
        1.0,
        0.0,
        0.0,
        0.0,
        0.0,
        2.220446049250313e-16,
        -1.0,
        0.0,
        0.0,
        1.0,
        2.220446049250313e-16,
        0.0,
        0.0,
        0.0,
        0.0,
        1.0
      ],
      "name": "Sketchfab_model"
    },
    {
      "children": [
        2
      ],
      "matrix": [
        1.0,
        0.0,
        0.0,
        0.0,
        0.0,
        -4.371139006309477e-08,
        0.999999999999999,
        0.0,
        0.0,
        -0.999999999999999,
        -4.371139006309477e-08,
        0.0,
        0.0,
        0.0,
        0.0,
        1.0
      ],
      "name": "Collada visual scene group"
    },
    {
      "children": [
        3,
        4
      ],
      "name": "ExitLight"
    },
    {
      "mesh": 0,
      "name": "defaultMaterial"
    },
    {
      "mesh": 1,
      "name": "defaultMaterial"
    }
  ],
  "samplers": [
    {
      "magFilter": 9729,
      "minFilter": 9987,
      "wrapS": 10497,
      "wrapT": 10497
    }
  ],
  "scene": 0,
  "scenes": [
    {
      "name": "Sketchfab_Scene",
      "nodes": [
        0
      ]
    }
  ],
  "textures": [
    {
      "sampler": 0,
      "source": 0
    },
    {
      "sampler": 0,
      "source": 1
    },
    {
      "sampler": 0,
      "source": 2
    },
    {
      "sampler": 0,
      "source": 3
    },
    {
      "sampler": 0,
      "source": 4
    },
    {
      "sampler": 0,
      "source": 5
    }
  ]
}
