{
  "accessors": [
    {
      "bufferView": 2,
      "componentType": 5126,
      "count": 2043,
      "max": [
        0.10000000149011612,
        0.10000000149011612,
        0.75
      ],
      "min": [
        -0.10000000149011612,
        -0.10000000149011612,
        -0.75
      ],
      "type": "VEC3"
    },
    {
      "bufferView": 2,
      "byteOffset": 24516,
      "componentType": 5126,
      "count": 2043,
      "max": [
        1.0,
        1.0,
        1.0
      ],
      "min": [
        -1.0,
        -1.0,
        -1.0
      ],
      "type": "VEC3"
    },
    {
      "bufferView": 1,
      "componentType": 5126,
      "count": 2043,
      "max": [
        0.6666672229766846,
        0.9184841513633728
      ],
      "min": [
        0.3596077561378479,
        0.014666835777461529
      ],
      "type": "VEC2"
    },
    {
      "bufferView": 0,
      "componentType": 5125,
      "count": 4581,
      "type": "SCALAR"
    },
    {
      "bufferView": 2,
      "byteOffset": 49032,
      "componentType": 5126,
      "count": 133,
      "max": [
        0.08090240508317947,
        0.10000000149011612,
        0.5811644792556763
      ],
      "min": [
        -0.09894970059394836,
        -0.10000000149011612,
        0.12373392283916473
      ],
      "type": "VEC3"
    },
    {
      "bufferView": 2,
      "byteOffset": 50628,
      "componentType": 5126,
      "count": 133,
      "max": [
        0.03813634440302849,
        1.0,
        0.9954381585121155
      ],
      "min": [
        -1.0,
        -1.0,
        -0.998237669467926
      ],
      "type": "VEC3"
    },
    {
      "bufferView": 1,
      "byteOffset": 16344,
      "componentType": 5126,
      "count": 133,
      "max": [
        0.592736005783081,
        0.797844648361206
      ],
      "min": [
        0.3789721429347992,
        0.5379736423492432
      ],
      "type": "VEC2"
    },
    {
      "bufferView": 0,
      "byteOffset": 18324,
      "componentType": 5125,
      "count": 279,
      "type": "SCALAR"
    },
    {
      "bufferView": 2,
      "byteOffset": 52224,
      "componentType": 5126,
      "count": 1088,
      "max": [
        0.02585500478744507,
        -0.45591557025909424,
        2.0070948600769043
      ],
      "min": [
        -0.02585500478744507,
        -0.5076255798339844,
        -0.7502535581588745
      ],
      "type": "VEC3"
    },
    {
      "bufferView": 2,
      "byteOffset": 65280,
      "componentType": 5126,
      "count": 1088,
      "max": [
        0.9951848387718201,
        0.9951846599578857,
        1.0
      ],
      "min": [
        -0.9951848387718201,
        -0.9951846599578857,
        -1.0
      ],
      "type": "VEC3"
    },
    {
      "bufferView": 1,
      "byteOffset": 17408,
      "componentType": 5126,
      "count": 1088,
      "max": [
        0.4964728057384491,
        0.9928337335586548
      ],
      "min": [
        0.39875221252441406,
        0.015720820054411888
      ],
      "type": "VEC2"
    },
    {
      "bufferView": 0,
      "byteOffset": 19440,
      "componentType": 5125,
      "count": 1716,
      "type": "SCALAR"
    },
    {
      "bufferView": 2,
      "byteOffset": 78336,
      "componentType": 5126,
      "count": 384,
      "max": [
        48.23216247558594,
        1.0,
        1.0
      ],
      "min": [
        -1.0,
        -1.0,
        -1.0000014305114746
      ],
      "type": "VEC3"
    },
    {
      "bufferView": 2,
      "byteOffset": 82944,
      "componentType": 5126,
      "count": 384,
      "max": [
        0.9951847791671753,
        0.9951848387718201,
        1.0
      ],
      "min": [
        -0.9951847791671753,
        -0.9951848387718201,
        -1.0
      ],
      "type": "VEC3"
    },
    {
      "bufferView": 1,
      "byteOffset": 26112,
      "componentType": 5126,
      "count": 384,
      "max": [
        0.4774662256240845,
        0.046939022839069366
      ],
      "min": [
        0.4213099479675293,
        0.009798319078981876
      ],
      "type": "VEC2"
    },
    {
      "bufferView": 0,
      "byteOffset": 26304,
      "componentType": 5125,
      "count": 744,
      "type": "SCALAR"
    },
    {
      "bufferView": 2,
      "byteOffset": 87552,
      "componentType": 5126,
      "count": 4,
      "max": [
        0.2440885305404663,
        2.7750456155217762e-08,
        0.39076781272888184
      ],
      "min": [
        -0.2440885305404663,
        -2.7750456155217762e-08,
        -0.39076805114746094
      ],
      "type": "VEC3"
    },
    {
      "bufferView": 2,
      "byteOffset": 87600,
      "componentType": 5126,
      "count": 4,
      "max": [
        -4.371138828673793e-08,
        1.0,
        -4.371138828673793e-08
      ],
      "min": [
        -4.371138828673793e-08,
        1.0,
        -4.371138828673793e-08
      ],
      "type": "VEC3"
    },
    {
      "bufferView": 1,
      "byteOffset": 29184,
      "componentType": 5126,
      "count": 4,
      "max": [
        0.8230509161949158,
        0.9206349849700928
      ],
      "min": [
        0.12175093591213226,
        0.09323625266551971
      ],
      "type": "VEC2"
    },
    {
      "bufferView": 0,
      "byteOffset": 29280,
      "componentType": 5125,
      "count": 6,
      "type": "SCALAR"
    },
    {
      "bufferView": 2,
      "byteOffset": 87648,
      "componentType": 5126,
      "count": 7616,
      "max": [
        0.2590565085411072,
        0.015000028535723686,
        0.4057358205318451
      ],
      "min": [
        -0.25905632972717285,
        -0.01500003132969141,
        -0.4057358205318451
      ],
      "type": "VEC3"
    },
    {
      "bufferView": 2,
      "byteOffset": 179040,
      "componentType": 5126,
      "count": 7616,
      "max": [
        0.998938262462616,
        0.9989286065101624,
        0.9989380836486816
      ],
      "min": [
        -0.998938262462616,
        -0.9989286661148071,
        -0.9989380240440369
      ],
      "type": "VEC3"
    },
    {
      "bufferView": 1,
      "byteOffset": 29216,
      "componentType": 5126,
      "count": 7616,
      "max": [
        0.4752557873725891,
        0.04780624061822891
      ],
      "min": [
        0.42553797364234924,
        0.005969901569187641
      ],
      "type": "VEC2"
    },
    {
      "bufferView": 0,
      "byteOffset": 29304,
      "componentType": 5125,
      "count": 11424,
      "type": "SCALAR"
    }
  ],
  "asset": {
    "extras": {
      "author": "Wieseli (https://sketchfab.com/Wieseli)",
      "license": "CC-BY-4.0 (http://creativecommons.org/licenses/by/4.0/)",
      "source": "https://sketchfab.com/3d-models/parking-meter-03cd5e18c947454b92b0f92b9e688ef5",
      "title": "Parking Meter"
    },
    "generator": "Sketchfab-14.22.0",
    "version": "2.0"
  },
  "bufferViews": [
    {
      "buffer": 0,
      "byteLength": 75000,
      "name": "floatBufferViews",
      "target": 34963
    },
    {
      "buffer": 0,
      "byteLength": 90144,
      "byteOffset": 75000,
      "byteStride": 8,
      "name": "floatBufferViews",
      "target": 34962
    },
    {
      "buffer": 0,
      "byteLength": 270432,
      "byteOffset": 165144,
      "byteStride": 12,
      "name": "floatBufferViews",
      "target": 34962
    }
  ],
  "buffers": [
    {
      "byteLength": 435576,
      "uri": "scene.bin"
    }
  ],
  "images": [
    {
      "uri": "textures/Parking_Clock_baseColor.jpeg"
    },
    {
      "uri": "textures/Pole_baseColor.jpeg"
    },
    {
      "uri": "textures/Pole_metallicRoughness.png"
    },
    {
      "uri": "textures/Material.002_baseColor.jpeg"
    }
  ],
  "materials": [
    {
      "doubleSided": true,
      "name": "Parking_Clock",
      "pbrMetallicRoughness": {
        "baseColorTexture": {
          "index": 0
        },
        "metallicFactor": 0.0,
        "roughnessFactor": 0.5
      }
    },
    {
      "doubleSided": true,
      "name": "Parking_Clock_Glossy",
      "pbrMetallicRoughness": {
        "baseColorTexture": {
          "index": 0
        },
        "metallicFactor": 0.0,
        "roughnessFactor": 0.0727273
      }
    },
    {
      "doubleSided": true,
      "name": "Pole",
      "pbrMetallicRoughness": {
        "baseColorTexture": {
          "index": 1
        },
        "metallicFactor": 0.0,
        "metallicRoughnessTexture": {
          "index": 2
        }
      }
    },
    {
      "doubleSided": true,
      "name": "Material.002",
      "pbrMetallicRoughness": {
        "baseColorTexture": {
          "index": 3
        },
        "metallicFactor": 0.0,
        "roughnessFactor": 0.5
      }
    }
  ],
  "meshes": [
    {
      "name": "Cube_Parking Clock_0",
      "primitives": [
        {
          "attributes": {
            "NORMAL": 1,
            "POSITION": 0,
            "TEXCOORD_0": 2
          },
          "indices": 3,
          "material": 0,
          "mode": 4
        }
      ]
    },
    {
      "name": "Cube_Parking Clock_Glossy_0",
      "primitives": [
        {
          "attributes": {
            "NORMAL": 5,
            "POSITION": 4,
            "TEXCOORD_0": 6
          },
          "indices": 7,
          "material": 1,
          "mode": 4
        }
      ]
    },
    {
      "name": "Cylinder_Pole_0",
      "primitives": [
        {
          "attributes": {
            "NORMAL": 9,
            "POSITION": 8,
            "TEXCOORD_0": 10
          },
          "indices": 11,
          "material": 2,
          "mode": 4
        }
      ]
    },
    {
      "name": "Cylinder.001_Pole_0",
      "primitives": [
        {
          "attributes": {
            "NORMAL": 13,
            "POSITION": 12,
            "TEXCOORD_0": 14
          },
          "indices": 15,
          "material": 2,
          "mode": 4
        }
      ]
    },
    {
      "name": "Plane_Material.002_0",
      "primitives": [
        {
          "attributes": {
            "NORMAL": 17,
            "POSITION": 16,
            "TEXCOORD_0": 18
          },
          "indices": 19,
          "material": 3,
          "mode": 4
        }
      ]
    },
    {
      "name": "Plane.001_Pole_0",
      "primitives": [
        {
          "attributes": {
            "NORMAL": 21,
            "POSITION": 20,
            "TEXCOORD_0": 22
          },
          "indices": 23,
          "material": 2,
          "mode": 4
        }
      ]
    }
  ],
  "nodes": [
    {
      "children": [
        1
      ],
      "matrix": [
        1.0,
        0.0,
        0.0,
        0.0,
        0.0,
        2.220446049250313e-16,
        -1.0,
        0.0,
        0.0,
        1.0,
        2.220446049250313e-16,
        0.0,
        0.0,
        0.0,
        0.0,
        1.0
      ],
      "name": "Sketchfab_model"
    },
    {
      "children": [
        2
      ],
      "matrix": [
        0.009999999776482582,
        0.0,
        0.0,
        0.0,
        0.0,
        0.0,
        0.009999999776482582,
        0.0,
        0.0,
        -0.009999999776482582,
        0.0,
        0.0,
        0.0,
        0.0,
        0.0,
        1.0
      ],
      "name": "ParkuhrZH.fbx"
    },
    {
      "children": [
        3,
        6,
        8,
        10,
        12
      ],
      "name": "RootNode"
    },
    {
      "children": [
        4,
        5
      ],
      "matrix": [
        100.0,
        0.0,
        0.0,
        0.0,
        0.0,
        -1.629206793918314e-05,
        -99.99999999999868,
        0.0,
        0.0,
        99.99999999999868,
        -1.629206793918314e-05,
        0.0,
        0.0,
        0.0,
        0.0,
        1.0
      ],
      "name": "Cube"
    },
    {
      "mesh": 0,
      "name": "Cube_Parking Clock_0"
    },
    {
      "mesh": 1,
      "name": "Cube_Parking Clock_Glossy_0"
    },
    {
      "children": [
        7
      ],
      "matrix": [
        100.0,
        0.0,
        0.0,
        0.0,
        0.0,
        -1.629206793918314e-05,
        -99.99999999999868,
        0.0,
        0.0,
        99.99999999999868,
        -1.629206793918314e-05,
        0.0,
        0.0,
        0.0,
        0.0,
        1.0
      ],
      "name": "Cylinder"
    },
    {
      "mesh": 2,
      "name": "Cylinder_Pole_0"
    },
    {
      "children": [
        9
      ],
      "matrix": [
        7.682223021231123e-08,
        -1.0175412893295241,
        6.06501654045824e-08,
        0.0,
        -2.8707888778109004e-07,
        -6.065018709477954e-08,
        -1.0175412893294866,
        0.0,
        5.749354839324706,
        4.3406411835156057e-07,
        -1.6220653022588082e-06,
        0.0,
        -7.032120227813721,
        186.27378845214844,
        48.17680358886719,
        1.0
      ],
      "name": "Cylinder.001"
    },
    {
      "mesh": 3,
      "name": "Cylinder.001_Pole_0"
    },
    {
      "children": [
        11
      ],
      "matrix": [
        94.6235580444336,
        0.0,
        0.0,
        0.0,
        -0.0,
        -1.5416134363071514e-05,
        -94.62355804443234,
        0.0,
        0.0,
        94.62355804443234,
        -1.5416134363071514e-05,
        0.0,
        -37.44477462768555,
        162.2467803955078,
        48.95646286010742,
        1.0
      ],
      "name": "Plane"
    },
    {
      "mesh": 4,
      "name": "Plane_Material.002_0"
    },
    {
      "children": [
        13
      ],
      "matrix": [
        100.0,
        0.0,
        0.0,
        0.0,
        -0.0,
        -1.629206793918314e-05,
        -99.99999999999868,
        0.0,
        0.0,
        99.99999999999868,
        -1.629206793918314e-05,
        0.0,
        -37.444786071777344,
        162.24676513671875,
        48.54740905761719,
        1.0
      ],
      "name": "Plane.001"
    },
    {
      "mesh": 5,
      "name": "Plane.001_Pole_0"
    }
  ],
  "samplers": [
    {
      "magFilter": 9729,
      "minFilter": 9987,
      "wrapS": 10497,
      "wrapT": 10497
    }
  ],
  "scene": 0,
  "scenes": [
    {
      "name": "Sketchfab_Scene",
      "nodes": [
        0
      ]
    }
  ],
  "textures": [
    {
      "sampler": 0,
      "source": 0
    },
    {
      "sampler": 0,
      "source": 1
    },
    {
      "sampler": 0,
      "source": 2
    },
    {
      "sampler": 0,
      "source": 3
    }
  ]
}
